<svg id="Layer_1" data-name="Layer 1" xmlns="http://www.w3.org/2000/svg" viewBox="0 0 154.91 145.28"><defs><style>.cls-1{fill:#dbe1e7;}</style></defs><title>qas-q</title><path class="cls-1" d="M55.53,83.47q-8.43,0-12.31-6.53T39.34,56.2q0-14.22,3.88-20.75t12.31-6.53q8.43,0,12.23,6.53T71.57,56.2q0,14.2-3.81,20.74T55.53,83.47M55.53,0Q38.34,0,25.87,6.61A45.3,45.3,0,0,0,6.69,25.87Q0,38.51,0,56.2,0,80,11.74,94.37t33.05,17.36a46.53,46.53,0,0,0-.66,6.44q0,12.08,8.76,19.59T79,145.28q22.48,0,31.9-8.93l-8.59-23.3a26.58,26.58,0,0,1-8.68,4.63A36.2,36.2,0,0,1,82,119.5q-8.6,0-12.73-1.74a7,7,0,0,1-4.63-5.87q22-2.48,34.13-17T110.9,56.2q0-26.61-14.63-41.41T55.53,0"/><polyline class="cls-1" points="154.91 82.98 129.16 82.98 129.16 108.74 154.91 108.74 154.91 82.98"/></svg>