<?xml version="1.0" encoding="utf-8"?>
<!-- Generator: Adobe Illustrator 19.0.0, SVG Export Plug-In . SVG Version: 6.00 Build 0)  -->
<svg version="1.1" id="Layer_1" xmlns="http://www.w3.org/2000/svg" xmlns:xlink="http://www.w3.org/1999/xlink" x="0px" y="0px"
	 viewBox="0 0 300 300" style="enable-background:new 0 0 300 300;" xml:space="preserve">
<pattern  x="-150" y="-150" width="300" height="300" patternUnits="userSpaceOnUse" id="New_Pattern" viewBox="5 -347.2 300 300" style="overflow:visible;">
	<g id="XMLID_20_">
		<polygon id="XMLID_44_" style="fill:none;" points="5,-347.2 305,-347.2 305,-47.2 5,-47.2 		"/>
		<g id="XMLID_42_">
			
				<polygon id="XMLID_43_" style="opacity:7.000000e-002;fill:#FFFFFF;stroke:#000000;stroke-width:5;stroke-miterlimit:10;" points="
				225.1,-59.1 168.5,-59.1 168.5,-2.5 225.1,-2.5 			"/>
		</g>
		<g id="XMLID_40_">
			
				<polygon id="XMLID_41_" style="opacity:8.000000e-002;fill:#FFFFFF;stroke:#000000;stroke-width:10;stroke-miterlimit:10;" points="
				380.2,-242.9 305,-242.9 305,-318.1 380.2,-318.1 			"/>
		</g>
		<g id="XMLID_24_">
			
				<polygon id="XMLID_39_" style="opacity:8.000000e-002;fill:#FFFFFF;stroke:#000000;stroke-width:7;stroke-miterlimit:10;" points="
				133.3,-188.7 58.2,-188.7 58.2,-263.9 133.3,-263.9 			"/>
			
				<polygon id="XMLID_37_" style="opacity:8.000000e-002;fill:#FFFFFF;stroke:#000000;stroke-width:5;stroke-miterlimit:10;" points="
				180.9,-128.4 105.8,-128.4 105.8,-203.5 180.9,-203.5 			"/>
			
				<polygon id="XMLID_36_" style="opacity:7.000000e-002;fill:#FFFFFF;stroke:#000000;stroke-width:5;stroke-miterlimit:10;" points="
				225.1,-359.1 168.5,-359.1 168.5,-302.5 225.1,-302.5 			"/>
			<polygon id="XMLID_35_" style="opacity:0.13;fill:#FFFFFF;stroke:#000000;stroke-width:12;stroke-miterlimit:10;" points="
				294,-109.4 248.5,-109.4 248.5,-63.9 294,-63.9 			"/>
			<polygon id="XMLID_32_" style="opacity:0.13;fill:#FFFFFF;stroke:#000000;stroke-width:12;stroke-miterlimit:10;" points="
				217.2,-302.5 119.8,-302.5 119.8,-205.1 217.2,-205.1 			"/>
			
				<polygon id="XMLID_31_" style="opacity:7.000000e-002;fill:#FFFFFF;stroke:#000000;stroke-width:8;stroke-miterlimit:10;" points="
				75.4,-103.8 18.9,-103.8 18.9,-47.2 75.4,-47.2 			"/>
			
				<polygon id="XMLID_30_" style="opacity:8.000000e-002;fill:#FFFFFF;stroke:#000000;stroke-width:2;stroke-miterlimit:10;" points="
				248.5,-71.8 173.3,-71.8 173.3,-147 248.5,-147 			"/>
			<polygon id="XMLID_29_" style="opacity:0.13;fill:#FFFFFF;stroke:#000000;stroke-width:12;stroke-miterlimit:10;" points="
				75.4,-169.7 40.2,-169.7 40.2,-134.6 75.4,-134.6 			"/>
			
				<polygon id="XMLID_28_" style="opacity:8.000000e-002;fill:#FFFFFF;stroke:#000000;stroke-width:10;stroke-miterlimit:10;" points="
				80.2,-242.9 5,-242.9 5,-318.1 80.2,-318.1 			"/>
			
				<polygon id="XMLID_27_" style="opacity:8.000000e-002;fill:#FFFFFF;stroke:#000000;stroke-width:3;stroke-miterlimit:10;" points="
				292.4,-155.7 217.2,-155.7 217.2,-230.9 292.4,-230.9 			"/>
			<polygon id="XMLID_26_" style="opacity:0.13;fill:#FFFFFF;stroke:#000000;stroke-width:12;stroke-miterlimit:10;" points="
				131.3,-81.1 75.4,-81.1 75.4,-25.3 131.3,-25.3 			"/>
			
				<polygon id="XMLID_25_" style="opacity:8.000000e-002;fill:#FFFFFF;stroke:#000000;stroke-width:6;stroke-miterlimit:10;" points="
				280.4,-255.6 205.2,-255.6 205.2,-330.8 280.4,-330.8 			"/>
		</g>
		<g id="XMLID_21_">
			
				<polygon id="XMLID_23_" style="opacity:7.000000e-002;fill:#FFFFFF;stroke:#000000;stroke-width:8;stroke-miterlimit:10;" points="
				75.4,-403.8 18.9,-403.8 18.9,-347.2 75.4,-347.2 			"/>
			<polygon id="XMLID_22_" style="opacity:0.13;fill:#FFFFFF;stroke:#000000;stroke-width:12;stroke-miterlimit:10;" points="
				131.3,-381.1 75.4,-381.1 75.4,-325.3 131.3,-325.3 			"/>
		</g>
	</g>
</pattern>
<rect id="XMLID_49_" style="fill:url(#New_Pattern);" width="300" height="300"/>
</svg>
