<?xml version="1.0" encoding="utf-8"?>
<!-- Generator: Adobe Illustrator 19.0.0, SVG Export Plug-In . SVG Version: 6.00 Build 0)  -->
<svg version="1.1" id="Layer_1" xmlns="http://www.w3.org/2000/svg" xmlns:xlink="http://www.w3.org/1999/xlink" x="0px" y="0px"
	 viewBox="0 0 200 200" style="enable-background:new 0 0 200 200;" xml:space="preserve">
<pattern  x="-100" y="-100" width="200" height="200" patternUnits="userSpaceOnUse" id="New_Pattern_2" viewBox="38 -218 200 200" style="overflow:visible;">
	<g id="XMLID_20_">
		<polygon id="XMLID_83_" style="fill:none;" points="38,-218 238,-218 238,-18 38,-18 		"/>
		<g id="XMLID_70_">
			<polygon id="XMLID_71_" style="opacity:8.000000e-002;fill:none;stroke:#000000;stroke-width:4;stroke-miterlimit:10;" points="
				238,-100.5 298,-100.5 298,-40.5 238,-40.5 			"/>
		</g>
		<g id="XMLID_43_">
			<polygon id="XMLID_64_" style="opacity:0.11;fill:none;stroke:#000000;stroke-width:4;stroke-miterlimit:10;" points="
				117.5,-133 55,-133 55,-195.5 117.5,-195.5 			"/>
			<polygon id="XMLID_63_" style="opacity:8.000000e-002;fill:none;stroke:#000000;stroke-width:4;stroke-miterlimit:10;" points="
				130.5,-155.8 86.3,-155.8 86.3,-111.5 130.5,-111.5 			"/>
			<polygon id="XMLID_62_" style="opacity:0.1;fill:none;stroke:#000000;stroke-width:4;stroke-miterlimit:10;" points="252,-2 
				202,-2 202,-52 252,-52 			"/>
			<polygon id="XMLID_57_" style="opacity:8.000000e-002;fill:none;stroke:#000000;stroke-width:4;stroke-miterlimit:10;" points="
				202,-115 155,-115 155,-68 202,-68 			"/>
			<polygon id="XMLID_56_" style="opacity:9.000000e-002;fill:none;stroke:#000000;stroke-width:2;stroke-miterlimit:10;" points="
				216.3,-148.5 187.8,-148.5 187.8,-177 216.3,-177 			"/>
			<polygon id="XMLID_55_" style="opacity:8.000000e-002;fill:none;stroke:#000000;stroke-width:4;stroke-miterlimit:10;" points="
				38,-100.5 98,-100.5 98,-40.5 38,-40.5 			"/>
			<polygon id="XMLID_50_" style="opacity:8.000000e-002;fill:none;stroke:#000000;stroke-width:4;stroke-miterlimit:10;" points="
				190,-163.5 144.5,-163.5 144.5,-209 190,-209 			"/>
			<polygon id="XMLID_47_" style="opacity:8.000000e-002;fill:none;stroke:#000000;stroke-width:9;stroke-miterlimit:10;" points="
				172.5,-86.5 117.5,-86.5 117.5,-31.5 172.5,-31.5 			"/>
			<polygon id="XMLID_45_" style="opacity:8.000000e-002;fill:none;stroke:#000000;stroke-width:10;stroke-miterlimit:10;" points="
				124,-179.5 186,-179.5 186,-117.5 124,-117.5 			"/>
			<polygon id="XMLID_44_" style="opacity:6.000000e-002;fill:none;stroke:#000000;stroke-width:11;stroke-miterlimit:10;" points="
				252,-144.8 214,-144.8 214,-106.8 252,-106.8 			"/>
		</g>
		<g id="XMLID_37_">
			<polygon id="XMLID_40_" style="opacity:0.1;fill:none;stroke:#000000;stroke-width:4;stroke-miterlimit:10;" points="52,-2 2,-2 
				2,-52 52,-52 			"/>
			<polygon id="XMLID_39_" style="opacity:6.000000e-002;fill:none;stroke:#000000;stroke-width:11;stroke-miterlimit:10;" points="
				52,-144.8 14,-144.8 14,-106.8 52,-106.8 			"/>
		</g>
		<g id="XMLID_34_">
			<polygon id="XMLID_36_" style="opacity:0.1;fill:none;stroke:#000000;stroke-width:4;stroke-miterlimit:10;" points="252,-202 
				202,-202 202,-252 252,-252 			"/>
		</g>
		<g id="XMLID_21_">
			<polygon id="XMLID_27_" style="opacity:0.1;fill:none;stroke:#000000;stroke-width:4;stroke-miterlimit:10;" points="52,-202 
				2,-202 2,-252 52,-252 			"/>
		</g>
	</g>
</pattern>
<rect id="XMLID_87_" style="fill:url(#New_Pattern_2);" width="200" height="200"/>
</svg>
