<?xml version="1.0" encoding="utf-8"?>
<!-- Generator: Adobe Illustrator 19.0.0, SVG Export Plug-In . SVG Version: 6.00 Build 0)  -->
<svg version="1.1" id="Layer_1" xmlns="http://www.w3.org/2000/svg" xmlns:xlink="http://www.w3.org/1999/xlink" x="0px" y="0px"
	 viewBox="0 0 400 400" style="enable-background:new 0 0 400 400;" xml:space="preserve">
<pattern  width="100" height="100" patternUnits="userSpaceOnUse" id="New_Pattern" viewBox="100.4 -194.5 100 100" style="overflow:visible;">
	<g id="XMLID_31_">
		<polygon id="XMLID_132_" style="fill:none;" points="100.4,-194.5 200.4,-194.5 200.4,-94.5 100.4,-94.5 		"/>
		<g id="XMLID_124_">
			
				<line id="XMLID_131_" style="opacity:0.25;fill:none;stroke:#000000;stroke-miterlimit:10;" x1="215.4" y1="-94.5" x2="200.7" y2="-79.8"/>
			
				<line id="XMLID_130_" style="opacity:0.25;fill:none;stroke:#000000;stroke-miterlimit:10;" x1="227.8" y1="-94.5" x2="200.4" y2="-67.1"/>
			
				<line id="XMLID_128_" style="opacity:0.25;fill:none;stroke:#000000;stroke-miterlimit:10;" x1="240.6" y1="-94.5" x2="200.5" y2="-54.4"/>
			
				<line id="XMLID_127_" style="opacity:0.25;fill:none;stroke:#000000;stroke-miterlimit:10;" x1="262.2" y1="-94.5" x2="199.4" y2="-31.7"/>
			
				<line id="XMLID_126_" style="opacity:0.25;fill:none;stroke:#000000;stroke-miterlimit:10;" x1="274.6" y1="-94.5" x2="199.3" y2="-19.2"/>
			
				<line id="XMLID_125_" style="opacity:0.25;fill:none;stroke:#000000;stroke-miterlimit:10;" x1="200.4" y1="-0.4" x2="294.6" y2="-94.5"/>
		</g>
		<g id="XMLID_117_">
			
				<line id="XMLID_123_" style="opacity:0.25;fill:none;stroke:#000000;stroke-miterlimit:10;" x1="115.4" y1="-94.5" x2="100.7" y2="-79.8"/>
			
				<line id="XMLID_122_" style="opacity:0.25;fill:none;stroke:#000000;stroke-miterlimit:10;" x1="127.8" y1="-94.5" x2="100.4" y2="-67.1"/>
			
				<line id="XMLID_121_" style="opacity:0.25;fill:none;stroke:#000000;stroke-miterlimit:10;" x1="140.6" y1="-94.5" x2="100.5" y2="-54.4"/>
			
				<line id="XMLID_120_" style="opacity:0.25;fill:none;stroke:#000000;stroke-miterlimit:10;" x1="162.2" y1="-94.5" x2="99.4" y2="-31.7"/>
			
				<line id="XMLID_119_" style="opacity:0.25;fill:none;stroke:#000000;stroke-miterlimit:10;" x1="174.6" y1="-94.5" x2="99.3" y2="-19.2"/>
			
				<line id="XMLID_118_" style="opacity:0.25;fill:none;stroke:#000000;stroke-miterlimit:10;" x1="100.4" y1="-0.4" x2="194.6" y2="-94.5"/>
		</g>
		<g id="XMLID_107_">
			
				<line id="XMLID_116_" style="opacity:0.25;fill:none;stroke:#000000;stroke-miterlimit:10;" x1="215.4" y1="-194.5" x2="200.7" y2="-179.8"/>
			
				<line id="XMLID_115_" style="opacity:0.25;fill:none;stroke:#000000;stroke-miterlimit:10;" x1="227.8" y1="-194.5" x2="200.4" y2="-167.1"/>
			
				<line id="XMLID_114_" style="opacity:0.25;fill:none;stroke:#000000;stroke-miterlimit:10;" x1="240.6" y1="-194.5" x2="200.5" y2="-154.4"/>
			
				<line id="XMLID_113_" style="opacity:0.25;fill:none;stroke:#000000;stroke-miterlimit:10;" x1="262.2" y1="-194.5" x2="199.4" y2="-131.7"/>
			
				<line id="XMLID_112_" style="opacity:0.25;fill:none;stroke:#000000;stroke-miterlimit:10;" x1="274.6" y1="-194.5" x2="199.3" y2="-119.2"/>
			
				<line id="XMLID_111_" style="opacity:0.25;fill:none;stroke:#000000;stroke-miterlimit:10;" x1="284.7" y1="-193.5" x2="200.5" y2="-109.3"/>
			
				<line id="XMLID_109_" style="opacity:0.25;fill:none;stroke:#000000;stroke-miterlimit:10;" x1="200.4" y1="-100.4" x2="294.6" y2="-194.5"/>
			
				<line id="XMLID_108_" style="opacity:0.25;fill:none;stroke:#000000;stroke-miterlimit:10;" x1="300.4" y1="-193.5" x2="200.4" y2="-93.4"/>
		</g>
		<g id="XMLID_72_">
			
				<line id="XMLID_106_" style="opacity:0.25;fill:none;stroke:#000000;stroke-miterlimit:10;" x1="115.4" y1="-194.5" x2="100.7" y2="-179.8"/>
			
				<line id="XMLID_105_" style="opacity:0.25;fill:none;stroke:#000000;stroke-miterlimit:10;" x1="127.8" y1="-194.5" x2="100.4" y2="-167.1"/>
			
				<line id="XMLID_104_" style="opacity:0.25;fill:none;stroke:#000000;stroke-miterlimit:10;" x1="140.6" y1="-194.5" x2="100.5" y2="-154.4"/>
			
				<line id="XMLID_103_" style="opacity:0.25;fill:none;stroke:#000000;stroke-miterlimit:10;" x1="151.4" y1="-193.5" x2="100.8" y2="-142.9"/>
			
				<line id="XMLID_101_" style="opacity:0.25;fill:none;stroke:#000000;stroke-miterlimit:10;" x1="162.2" y1="-194.5" x2="99.4" y2="-131.7"/>
			
				<line id="XMLID_93_" style="opacity:0.25;fill:none;stroke:#000000;stroke-miterlimit:10;" x1="174.6" y1="-194.5" x2="99.3" y2="-119.2"/>
			
				<line id="XMLID_92_" style="opacity:0.25;fill:none;stroke:#000000;stroke-miterlimit:10;" x1="184.7" y1="-193.5" x2="100.5" y2="-109.3"/>
			
				<line id="XMLID_91_" style="opacity:0.25;fill:none;stroke:#000000;stroke-miterlimit:10;" x1="100.4" y1="-100.4" x2="194.6" y2="-194.5"/>
			
				<line id="XMLID_90_" style="opacity:0.25;fill:none;stroke:#000000;stroke-miterlimit:10;" x1="200.4" y1="-193.5" x2="100.4" y2="-93.4"/>
			
				<line id="XMLID_89_" style="opacity:0.25;fill:none;stroke:#000000;stroke-miterlimit:10;" x1="114.1" y1="-94.5" x2="198.5" y2="-178.8"/>
			
				<line id="XMLID_88_" style="opacity:0.25;fill:none;stroke:#000000;stroke-miterlimit:10;" x1="127.8" y1="-94.5" x2="202.5" y2="-169.2"/>
			
				<line id="XMLID_87_" style="opacity:0.25;fill:none;stroke:#000000;stroke-miterlimit:10;" x1="200.4" y1="-158.5" x2="136.3" y2="-94.7"/>
			
				<line id="XMLID_86_" style="opacity:0.25;fill:none;stroke:#000000;stroke-miterlimit:10;" x1="169.6" y1="-94" x2="200.4" y2="-124.8"/>
			
				<line id="XMLID_75_" style="opacity:0.25;fill:none;stroke:#000000;stroke-miterlimit:10;" x1="159" y1="-94.5" x2="200.8" y2="-136.3"/>
			
				<line id="XMLID_74_" style="opacity:0.25;fill:none;stroke:#000000;stroke-miterlimit:10;" x1="200.4" y1="-144.5" x2="149.5" y2="-93.9"/>
			
				<line id="XMLID_73_" style="opacity:0.25;fill:none;stroke:#000000;stroke-miterlimit:10;" x1="181.9" y1="-94.7" x2="200.8" y2="-113.9"/>
		</g>
		<g id="XMLID_63_">
			
				<line id="XMLID_71_" style="opacity:0.25;fill:none;stroke:#000000;stroke-miterlimit:10;" x1="100.4" y1="-193.5" x2="0.4" y2="-93.4"/>
			
				<line id="XMLID_70_" style="opacity:0.25;fill:none;stroke:#000000;stroke-miterlimit:10;" x1="27.8" y1="-94.5" x2="102.5" y2="-169.2"/>
			
				<line id="XMLID_69_" style="opacity:0.25;fill:none;stroke:#000000;stroke-miterlimit:10;" x1="100.4" y1="-158.5" x2="36.3" y2="-94.7"/>
			
				<line id="XMLID_68_" style="opacity:0.25;fill:none;stroke:#000000;stroke-miterlimit:10;" x1="69.6" y1="-94" x2="100.4" y2="-124.8"/>
			
				<line id="XMLID_66_" style="opacity:0.25;fill:none;stroke:#000000;stroke-miterlimit:10;" x1="59" y1="-94.5" x2="100.8" y2="-136.3"/>
			
				<line id="XMLID_65_" style="opacity:0.25;fill:none;stroke:#000000;stroke-miterlimit:10;" x1="100.4" y1="-144.5" x2="49.5" y2="-93.9"/>
			
				<line id="XMLID_64_" style="opacity:0.25;fill:none;stroke:#000000;stroke-miterlimit:10;" x1="81.9" y1="-94.7" x2="100.8" y2="-113.9"/>
		</g>
		<g id="XMLID_61_">
			
				<line id="XMLID_62_" style="opacity:0.25;fill:none;stroke:#000000;stroke-miterlimit:10;" x1="300.4" y1="-293.5" x2="200.4" y2="-193.4"/>
		</g>
		<g id="XMLID_43_">
			
				<line id="XMLID_60_" style="opacity:0.25;fill:none;stroke:#000000;stroke-miterlimit:10;" x1="200.4" y1="-293.5" x2="100.4" y2="-193.4"/>
			
				<line id="XMLID_55_" style="opacity:0.25;fill:none;stroke:#000000;stroke-miterlimit:10;" x1="114.1" y1="-194.5" x2="198.5" y2="-278.8"/>
			
				<line id="XMLID_49_" style="opacity:0.25;fill:none;stroke:#000000;stroke-miterlimit:10;" x1="127.8" y1="-194.5" x2="202.5" y2="-269.2"/>
			
				<line id="XMLID_48_" style="opacity:0.25;fill:none;stroke:#000000;stroke-miterlimit:10;" x1="200.4" y1="-258.5" x2="136.3" y2="-194.7"/>
			
				<line id="XMLID_47_" style="opacity:0.25;fill:none;stroke:#000000;stroke-miterlimit:10;" x1="169.6" y1="-194" x2="200.4" y2="-224.8"/>
			
				<line id="XMLID_46_" style="opacity:0.25;fill:none;stroke:#000000;stroke-miterlimit:10;" x1="159" y1="-194.5" x2="200.8" y2="-236.3"/>
			
				<line id="XMLID_45_" style="opacity:0.25;fill:none;stroke:#000000;stroke-miterlimit:10;" x1="200.4" y1="-244.5" x2="149.5" y2="-193.9"/>
			
				<line id="XMLID_44_" style="opacity:0.25;fill:none;stroke:#000000;stroke-miterlimit:10;" x1="181.9" y1="-194.7" x2="200.8" y2="-213.9"/>
		</g>
		<g id="XMLID_34_">
			
				<line id="XMLID_41_" style="opacity:0.25;fill:none;stroke:#000000;stroke-miterlimit:10;" x1="100.4" y1="-293.5" x2="0.4" y2="-193.4"/>
			
				<line id="XMLID_40_" style="opacity:0.25;fill:none;stroke:#000000;stroke-miterlimit:10;" x1="27.8" y1="-194.5" x2="102.5" y2="-269.2"/>
			
				<line id="XMLID_39_" style="opacity:0.25;fill:none;stroke:#000000;stroke-miterlimit:10;" x1="100.4" y1="-258.5" x2="36.3" y2="-194.7"/>
			
				<line id="XMLID_38_" style="opacity:0.25;fill:none;stroke:#000000;stroke-miterlimit:10;" x1="69.6" y1="-194" x2="100.4" y2="-224.8"/>
			
				<line id="XMLID_37_" style="opacity:0.25;fill:none;stroke:#000000;stroke-miterlimit:10;" x1="59" y1="-194.5" x2="100.8" y2="-236.3"/>
			
				<line id="XMLID_36_" style="opacity:0.25;fill:none;stroke:#000000;stroke-miterlimit:10;" x1="100.4" y1="-244.5" x2="49.5" y2="-193.9"/>
			
				<line id="XMLID_35_" style="opacity:0.25;fill:none;stroke:#000000;stroke-miterlimit:10;" x1="81.9" y1="-194.7" x2="100.8" y2="-213.9"/>
		</g>
	</g>
</pattern>
<rect id="XMLID_1_" style="fill:url(#New_Pattern);" width="400" height="400"/>
</svg>
