<?xml version="1.0" encoding="utf-8"?>
<!-- Generator: Adobe Illustrator 19.0.0, SVG Export Plug-In . SVG Version: 6.00 Build 0)  -->
<svg version="1.1" id="Layer_1" xmlns="http://www.w3.org/2000/svg" xmlns:xlink="http://www.w3.org/1999/xlink" x="0px" y="0px"
	 viewBox="0 0 100 100" style="enable-background:new 0 0 100 100;" xml:space="preserve">
<pattern  x="-150" y="-150" width="100.4" height="151.5" patternUnits="userSpaceOnUse" id="Fake_Football" viewBox="50.2 -202 100.4 151.5" style="overflow:visible;">
	<g id="XMLID_233_">
		<polygon id="XMLID_369_" style="fill:none;" points="50.2,-202 150.6,-202 150.6,-50.5 50.2,-50.5 		"/>
		<g id="XMLID_336_">
			
				<line id="XMLID_368_" style="fill:none;stroke:#000000;stroke-width:0.5;stroke-miterlimit:10;" x1="100.6" y1="-79.1" x2="122.1" y2="-100.6"/>
			
				<line id="XMLID_367_" style="fill:none;stroke:#000000;stroke-width:0.5;stroke-miterlimit:10;" x1="100.6" y1="-82.2" x2="119" y2="-100.6"/>
			
				<line id="XMLID_366_" style="fill:none;stroke:#000000;stroke-width:0.5;stroke-miterlimit:10;" x1="100.6" y1="-75.5" x2="125.7" y2="-100.6"/>
			
				<line id="XMLID_365_" style="fill:none;stroke:#000000;stroke-width:0.5;stroke-miterlimit:10;" x1="100.6" y1="-72.4" x2="128.9" y2="-100.7"/>
			
				<line id="XMLID_364_" style="fill:none;stroke:#000000;stroke-width:0.5;stroke-miterlimit:10;" x1="100.6" y1="-65.9" x2="135.5" y2="-100.8"/>
			
				<line id="XMLID_363_" style="fill:none;stroke:#000000;stroke-width:0.5;stroke-miterlimit:10;" x1="100.6" y1="-69" x2="132.2" y2="-100.6"/>
			
				<line id="XMLID_362_" style="fill:none;stroke:#000000;stroke-width:0.5;stroke-miterlimit:10;" x1="100.6" y1="-62.3" x2="138.9" y2="-100.6"/>
			
				<line id="XMLID_361_" style="fill:none;stroke:#000000;stroke-width:0.5;stroke-miterlimit:10;" x1="100.6" y1="-59.2" x2="142" y2="-100.6"/>
			
				<line id="XMLID_360_" style="fill:none;stroke:#000000;stroke-width:0.5;stroke-miterlimit:10;" x1="100.6" y1="-53.1" x2="147.9" y2="-100.5"/>
			
				<line id="XMLID_359_" style="fill:none;stroke:#000000;stroke-width:0.5;stroke-miterlimit:10;" x1="100.6" y1="-56.2" x2="144.8" y2="-100.5"/>
			
				<line id="XMLID_358_" style="fill:none;stroke:#000000;stroke-width:0.5;stroke-miterlimit:10;" x1="100.6" y1="-49.5" x2="151.5" y2="-100.5"/>
			
				<line id="XMLID_357_" style="fill:none;stroke:#000000;stroke-width:0.5;stroke-miterlimit:10;" x1="100.6" y1="-46.4" x2="154.7" y2="-100.5"/>
			
				<line id="XMLID_356_" style="fill:none;stroke:#000000;stroke-width:0.5;stroke-miterlimit:10;" x1="100.6" y1="-39.9" x2="161.3" y2="-100.7"/>
			
				<line id="XMLID_355_" style="fill:none;stroke:#000000;stroke-width:0.5;stroke-miterlimit:10;" x1="100.6" y1="-43" x2="158" y2="-100.5"/>
			
				<line id="XMLID_354_" style="fill:none;stroke:#000000;stroke-width:0.5;stroke-miterlimit:10;" x1="100.6" y1="-36.3" x2="164.7" y2="-100.5"/>
			
				<line id="XMLID_353_" style="fill:none;stroke:#000000;stroke-width:0.5;stroke-miterlimit:10;" x1="100.6" y1="-33.2" x2="168" y2="-100.7"/>
			
				<line id="XMLID_352_" style="fill:none;stroke:#000000;stroke-width:0.5;stroke-miterlimit:10;" x1="100.6" y1="-27.1" x2="174.1" y2="-100.6"/>
			
				<line id="XMLID_351_" style="fill:none;stroke:#000000;stroke-width:0.5;stroke-miterlimit:10;" x1="100.6" y1="-30.2" x2="171" y2="-100.6"/>
			
				<line id="XMLID_350_" style="fill:none;stroke:#000000;stroke-width:0.5;stroke-miterlimit:10;" x1="100.6" y1="-23.5" x2="177.2" y2="-100.2"/>
			
				<line id="XMLID_349_" style="fill:none;stroke:#000000;stroke-width:0.5;stroke-miterlimit:10;" x1="100.6" y1="-20.4" x2="180.4" y2="-100.3"/>
			
				<line id="XMLID_348_" style="fill:none;stroke:#000000;stroke-width:0.5;stroke-miterlimit:10;" x1="100.6" y1="-13.9" x2="187.1" y2="-100.4"/>
			
				<line id="XMLID_347_" style="fill:none;stroke:#000000;stroke-width:0.5;stroke-miterlimit:10;" x1="100.6" y1="-17" x2="183.8" y2="-100.2"/>
			
				<line id="XMLID_346_" style="fill:none;stroke:#000000;stroke-width:0.5;stroke-miterlimit:10;" x1="100.6" y1="-10.3" x2="190.4" y2="-100.2"/>
			
				<line id="XMLID_345_" style="fill:none;stroke:#000000;stroke-width:0.5;stroke-miterlimit:10;" x1="100.6" y1="-7.2" x2="193.6" y2="-100.2"/>
			
				<line id="XMLID_344_" style="fill:none;stroke:#000000;stroke-width:0.5;stroke-miterlimit:10;" x1="100.6" y1="-1.1" x2="200.1" y2="-100.7"/>
			
				<line id="XMLID_343_" style="fill:none;stroke:#000000;stroke-width:0.5;stroke-miterlimit:10;" x1="100.6" y1="-4.2" x2="197" y2="-100.7"/>
			
				<line id="XMLID_342_" style="fill:none;stroke:#000000;stroke-width:0.5;stroke-miterlimit:10;" x1="103.7" y1="-0.7" x2="200.6" y2="-97.6"/>
			
				<line id="XMLID_341_" style="fill:none;stroke:#000000;stroke-width:0.5;stroke-miterlimit:10;" x1="106.8" y1="-0.7" x2="200.6" y2="-94.4"/>
			
				<line id="XMLID_340_" style="fill:none;stroke:#000000;stroke-width:0.5;stroke-miterlimit:10;" x1="113.1" y1="-0.5" x2="200.6" y2="-87.9"/>
			
				<line id="XMLID_339_" style="fill:none;stroke:#000000;stroke-width:0.5;stroke-miterlimit:10;" x1="110.6" y1="-1.1" x2="200.6" y2="-91.1"/>
			
				<line id="XMLID_338_" style="fill:none;stroke:#000000;stroke-width:0.5;stroke-miterlimit:10;" x1="116.4" y1="-0.2" x2="200.5" y2="-84.3"/>
			
				<line id="XMLID_337_" style="fill:none;stroke:#000000;stroke-width:0.5;stroke-miterlimit:10;" x1="120.1" y1="-0.7" x2="200.6" y2="-81.2"/>
		</g>
		<g id="XMLID_313_">
			
				<line id="XMLID_335_" style="fill:none;stroke:#000000;stroke-width:0.5;stroke-miterlimit:10;" x1="0.2" y1="-49.5" x2="51.1" y2="-100.5"/>
			
				<line id="XMLID_334_" style="fill:none;stroke:#000000;stroke-width:0.5;stroke-miterlimit:10;" x1="0.2" y1="-46.4" x2="54.3" y2="-100.5"/>
			
				<line id="XMLID_333_" style="fill:none;stroke:#000000;stroke-width:0.5;stroke-miterlimit:10;" x1="0.2" y1="-39.9" x2="61" y2="-100.7"/>
			
				<line id="XMLID_332_" style="fill:none;stroke:#000000;stroke-width:0.5;stroke-miterlimit:10;" x1="0.2" y1="-43" x2="57.6" y2="-100.5"/>
			
				<line id="XMLID_331_" style="fill:none;stroke:#000000;stroke-width:0.5;stroke-miterlimit:10;" x1="0.2" y1="-36.3" x2="64.3" y2="-100.5"/>
			
				<line id="XMLID_330_" style="fill:none;stroke:#000000;stroke-width:0.5;stroke-miterlimit:10;" x1="0.2" y1="-33.2" x2="67.6" y2="-100.7"/>
			
				<line id="XMLID_329_" style="fill:none;stroke:#000000;stroke-width:0.5;stroke-miterlimit:10;" x1="0.2" y1="-27.1" x2="73.7" y2="-100.6"/>
			
				<line id="XMLID_328_" style="fill:none;stroke:#000000;stroke-width:0.5;stroke-miterlimit:10;" x1="0.2" y1="-30.2" x2="70.6" y2="-100.6"/>
			
				<line id="XMLID_327_" style="fill:none;stroke:#000000;stroke-width:0.5;stroke-miterlimit:10;" x1="0.2" y1="-23.5" x2="76.9" y2="-100.2"/>
			
				<line id="XMLID_326_" style="fill:none;stroke:#000000;stroke-width:0.5;stroke-miterlimit:10;" x1="0.2" y1="-20.4" x2="80" y2="-100.3"/>
			
				<line id="XMLID_325_" style="fill:none;stroke:#000000;stroke-width:0.5;stroke-miterlimit:10;" x1="0.2" y1="-13.9" x2="86.7" y2="-100.4"/>
			
				<line id="XMLID_324_" style="fill:none;stroke:#000000;stroke-width:0.5;stroke-miterlimit:10;" x1="0.2" y1="-17" x2="83.4" y2="-100.2"/>
			
				<line id="XMLID_323_" style="fill:none;stroke:#000000;stroke-width:0.5;stroke-miterlimit:10;" x1="0.2" y1="-10.3" x2="90.1" y2="-100.2"/>
			
				<line id="XMLID_322_" style="fill:none;stroke:#000000;stroke-width:0.5;stroke-miterlimit:10;" x1="0.2" y1="-7.2" x2="93.2" y2="-100.2"/>
			
				<line id="XMLID_321_" style="fill:none;stroke:#000000;stroke-width:0.5;stroke-miterlimit:10;" x1="0.2" y1="-1.1" x2="99.7" y2="-100.7"/>
			
				<line id="XMLID_320_" style="fill:none;stroke:#000000;stroke-width:0.5;stroke-miterlimit:10;" x1="0.2" y1="-4.2" x2="96.6" y2="-100.7"/>
			
				<line id="XMLID_319_" style="fill:none;stroke:#000000;stroke-width:0.5;stroke-miterlimit:10;" x1="3.3" y1="-0.7" x2="100.2" y2="-97.6"/>
			
				<line id="XMLID_318_" style="fill:none;stroke:#000000;stroke-width:0.5;stroke-miterlimit:10;" x1="6.4" y1="-0.7" x2="100.2" y2="-94.4"/>
			
				<line id="XMLID_317_" style="fill:none;stroke:#000000;stroke-width:0.5;stroke-miterlimit:10;" x1="12.7" y1="-0.5" x2="100.2" y2="-87.9"/>
			
				<line id="XMLID_316_" style="fill:none;stroke:#000000;stroke-width:0.5;stroke-miterlimit:10;" x1="10.3" y1="-1.1" x2="100.2" y2="-91.1"/>
			
				<line id="XMLID_315_" style="fill:none;stroke:#000000;stroke-width:0.5;stroke-miterlimit:10;" x1="16" y1="-0.2" x2="100.1" y2="-84.3"/>
			
				<line id="XMLID_314_" style="fill:none;stroke:#000000;stroke-width:0.5;stroke-miterlimit:10;" x1="19.7" y1="-0.7" x2="100.2" y2="-81.2"/>
		</g>
		<g id="XMLID_280_">
			
				<line id="XMLID_312_" style="fill:none;stroke:#000000;stroke-width:0.5;stroke-miterlimit:10;" x1="50.4" y1="-154.8" x2="71.9" y2="-176.4"/>
			
				<line id="XMLID_311_" style="fill:none;stroke:#000000;stroke-width:0.5;stroke-miterlimit:10;" x1="50.4" y1="-158" x2="68.8" y2="-176.4"/>
			
				<line id="XMLID_310_" style="fill:none;stroke:#000000;stroke-width:0.5;stroke-miterlimit:10;" x1="50.4" y1="-151.3" x2="75.5" y2="-176.4"/>
			
				<line id="XMLID_309_" style="fill:none;stroke:#000000;stroke-width:0.5;stroke-miterlimit:10;" x1="50.4" y1="-148.1" x2="78.7" y2="-176.4"/>
			
				<line id="XMLID_308_" style="fill:none;stroke:#000000;stroke-width:0.5;stroke-miterlimit:10;" x1="50.4" y1="-141.6" x2="85.3" y2="-176.6"/>
			
				<line id="XMLID_307_" style="fill:none;stroke:#000000;stroke-width:0.5;stroke-miterlimit:10;" x1="50.4" y1="-144.8" x2="82" y2="-176.4"/>
			
				<line id="XMLID_306_" style="fill:none;stroke:#000000;stroke-width:0.5;stroke-miterlimit:10;" x1="50.4" y1="-138.1" x2="88.7" y2="-176.4"/>
			
				<line id="XMLID_305_" style="fill:none;stroke:#000000;stroke-width:0.5;stroke-miterlimit:10;" x1="50.4" y1="-134.9" x2="91.8" y2="-176.4"/>
			
				<line id="XMLID_304_" style="fill:none;stroke:#000000;stroke-width:0.5;stroke-miterlimit:10;" x1="50.4" y1="-128.9" x2="97.8" y2="-176.2"/>
			
				<line id="XMLID_303_" style="fill:none;stroke:#000000;stroke-width:0.5;stroke-miterlimit:10;" x1="50.4" y1="-132" x2="94.6" y2="-176.2"/>
			
				<line id="XMLID_302_" style="fill:none;stroke:#000000;stroke-width:0.5;stroke-miterlimit:10;" x1="50.4" y1="-125.3" x2="101.3" y2="-176.2"/>
			
				<line id="XMLID_301_" style="fill:none;stroke:#000000;stroke-width:0.5;stroke-miterlimit:10;" x1="50.4" y1="-122.2" x2="104.5" y2="-176.3"/>
			
				<line id="XMLID_300_" style="fill:none;stroke:#000000;stroke-width:0.5;stroke-miterlimit:10;" x1="50.4" y1="-115.7" x2="111.2" y2="-176.4"/>
			
				<line id="XMLID_299_" style="fill:none;stroke:#000000;stroke-width:0.5;stroke-miterlimit:10;" x1="50.4" y1="-118.8" x2="107.8" y2="-176.2"/>
			
				<line id="XMLID_298_" style="fill:none;stroke:#000000;stroke-width:0.5;stroke-miterlimit:10;" x1="50.4" y1="-112.1" x2="114.5" y2="-176.2"/>
			
				<line id="XMLID_297_" style="fill:none;stroke:#000000;stroke-width:0.5;stroke-miterlimit:10;" x1="50.4" y1="-109" x2="117.8" y2="-176.4"/>
			
				<line id="XMLID_296_" style="fill:none;stroke:#000000;stroke-width:0.5;stroke-miterlimit:10;" x1="50.4" y1="-102.9" x2="123.9" y2="-176.4"/>
			
				<line id="XMLID_295_" style="fill:none;stroke:#000000;stroke-width:0.5;stroke-miterlimit:10;" x1="50.4" y1="-106" x2="120.8" y2="-176.4"/>
			
				<line id="XMLID_294_" style="fill:none;stroke:#000000;stroke-width:0.5;stroke-miterlimit:10;" x1="50.4" y1="-99.3" x2="127.1" y2="-176"/>
			
				<line id="XMLID_293_" style="fill:none;stroke:#000000;stroke-width:0.5;stroke-miterlimit:10;" x1="50.4" y1="-96.2" x2="130.2" y2="-176"/>
			
				<line id="XMLID_292_" style="fill:none;stroke:#000000;stroke-width:0.5;stroke-miterlimit:10;" x1="50.4" y1="-89.7" x2="136.9" y2="-176.2"/>
			
				<line id="XMLID_291_" style="fill:none;stroke:#000000;stroke-width:0.5;stroke-miterlimit:10;" x1="50.4" y1="-92.8" x2="133.6" y2="-176"/>
			
				<line id="XMLID_290_" style="fill:none;stroke:#000000;stroke-width:0.5;stroke-miterlimit:10;" x1="50.4" y1="-86.1" x2="140.3" y2="-176"/>
			
				<line id="XMLID_289_" style="fill:none;stroke:#000000;stroke-width:0.5;stroke-miterlimit:10;" x1="50.4" y1="-83" x2="143.4" y2="-176"/>
			
				<line id="XMLID_288_" style="fill:none;stroke:#000000;stroke-width:0.5;stroke-miterlimit:10;" x1="50.4" y1="-76.9" x2="149.9" y2="-176.4"/>
			
				<line id="XMLID_287_" style="fill:none;stroke:#000000;stroke-width:0.5;stroke-miterlimit:10;" x1="50.4" y1="-80" x2="146.8" y2="-176.5"/>
			
				<line id="XMLID_286_" style="fill:none;stroke:#000000;stroke-width:0.5;stroke-miterlimit:10;" x1="53.5" y1="-76.5" x2="150.4" y2="-173.3"/>
			
				<line id="XMLID_285_" style="fill:none;stroke:#000000;stroke-width:0.5;stroke-miterlimit:10;" x1="56.6" y1="-76.4" x2="150.4" y2="-170.2"/>
			
				<line id="XMLID_284_" style="fill:none;stroke:#000000;stroke-width:0.5;stroke-miterlimit:10;" x1="62.9" y1="-76.2" x2="150.4" y2="-163.7"/>
			
				<line id="XMLID_283_" style="fill:none;stroke:#000000;stroke-width:0.5;stroke-miterlimit:10;" x1="60.5" y1="-76.9" x2="150.4" y2="-166.8"/>
			
				<line id="XMLID_282_" style="fill:none;stroke:#000000;stroke-width:0.5;stroke-miterlimit:10;" x1="66.2" y1="-75.9" x2="150.3" y2="-160.1"/>
			
				<line id="XMLID_281_" style="fill:none;stroke:#000000;stroke-width:0.5;stroke-miterlimit:10;" x1="69.9" y1="-76.5" x2="150.4" y2="-157"/>
		</g>
		<g id="XMLID_257_">
			
				<line id="XMLID_279_" style="fill:none;stroke:#000000;stroke-width:0.5;stroke-miterlimit:10;" x1="100.6" y1="-201.1" x2="151.5" y2="-252"/>
			
				<line id="XMLID_278_" style="fill:none;stroke:#000000;stroke-width:0.5;stroke-miterlimit:10;" x1="100.6" y1="-197.9" x2="154.7" y2="-252"/>
			
				<line id="XMLID_277_" style="fill:none;stroke:#000000;stroke-width:0.5;stroke-miterlimit:10;" x1="100.6" y1="-191.4" x2="161.3" y2="-252.2"/>
			
				<line id="XMLID_276_" style="fill:none;stroke:#000000;stroke-width:0.5;stroke-miterlimit:10;" x1="100.6" y1="-194.6" x2="158" y2="-252"/>
			
				<line id="XMLID_275_" style="fill:none;stroke:#000000;stroke-width:0.5;stroke-miterlimit:10;" x1="100.6" y1="-187.9" x2="164.7" y2="-252"/>
			
				<line id="XMLID_274_" style="fill:none;stroke:#000000;stroke-width:0.5;stroke-miterlimit:10;" x1="100.6" y1="-184.7" x2="168" y2="-252.2"/>
			
				<line id="XMLID_273_" style="fill:none;stroke:#000000;stroke-width:0.5;stroke-miterlimit:10;" x1="100.6" y1="-178.6" x2="174.1" y2="-252.2"/>
			
				<line id="XMLID_272_" style="fill:none;stroke:#000000;stroke-width:0.5;stroke-miterlimit:10;" x1="100.6" y1="-181.7" x2="171" y2="-252.1"/>
			
				<line id="XMLID_271_" style="fill:none;stroke:#000000;stroke-width:0.5;stroke-miterlimit:10;" x1="100.6" y1="-175.1" x2="177.2" y2="-251.8"/>
			
				<line id="XMLID_270_" style="fill:none;stroke:#000000;stroke-width:0.5;stroke-miterlimit:10;" x1="100.6" y1="-171.9" x2="180.4" y2="-251.8"/>
			
				<line id="XMLID_269_" style="fill:none;stroke:#000000;stroke-width:0.5;stroke-miterlimit:10;" x1="100.6" y1="-165.4" x2="187.1" y2="-252"/>
			
				<line id="XMLID_268_" style="fill:none;stroke:#000000;stroke-width:0.5;stroke-miterlimit:10;" x1="100.6" y1="-168.5" x2="183.8" y2="-251.8"/>
			
				<line id="XMLID_267_" style="fill:none;stroke:#000000;stroke-width:0.5;stroke-miterlimit:10;" x1="100.6" y1="-161.9" x2="190.4" y2="-251.8"/>
			
				<line id="XMLID_266_" style="fill:none;stroke:#000000;stroke-width:0.5;stroke-miterlimit:10;" x1="100.6" y1="-158.7" x2="193.6" y2="-251.8"/>
			
				<line id="XMLID_265_" style="fill:none;stroke:#000000;stroke-width:0.5;stroke-miterlimit:10;" x1="100.6" y1="-152.6" x2="200.1" y2="-252.2"/>
			
				<line id="XMLID_264_" style="fill:none;stroke:#000000;stroke-width:0.5;stroke-miterlimit:10;" x1="100.6" y1="-155.8" x2="197" y2="-252.2"/>
			
				<line id="XMLID_263_" style="fill:none;stroke:#000000;stroke-width:0.5;stroke-miterlimit:10;" x1="103.7" y1="-152.2" x2="200.6" y2="-249.1"/>
			
				<line id="XMLID_262_" style="fill:none;stroke:#000000;stroke-width:0.5;stroke-miterlimit:10;" x1="106.8" y1="-152.2" x2="200.6" y2="-245.9"/>
			
				<line id="XMLID_261_" style="fill:none;stroke:#000000;stroke-width:0.5;stroke-miterlimit:10;" x1="113.1" y1="-152" x2="200.6" y2="-239.4"/>
			
				<line id="XMLID_260_" style="fill:none;stroke:#000000;stroke-width:0.5;stroke-miterlimit:10;" x1="110.6" y1="-152.6" x2="200.6" y2="-242.6"/>
			
				<line id="XMLID_259_" style="fill:none;stroke:#000000;stroke-width:0.5;stroke-miterlimit:10;" x1="116.4" y1="-151.7" x2="200.5" y2="-235.8"/>
			
				<line id="XMLID_258_" style="fill:none;stroke:#000000;stroke-width:0.5;stroke-miterlimit:10;" x1="120.1" y1="-152.3" x2="200.6" y2="-232.7"/>
		</g>
		<g id="XMLID_234_">
			
				<line id="XMLID_256_" style="fill:none;stroke:#000000;stroke-width:0.5;stroke-miterlimit:10;" x1="0.2" y1="-201.1" x2="51.1" y2="-252"/>
			
				<line id="XMLID_255_" style="fill:none;stroke:#000000;stroke-width:0.5;stroke-miterlimit:10;" x1="0.2" y1="-197.9" x2="54.3" y2="-252"/>
			
				<line id="XMLID_254_" style="fill:none;stroke:#000000;stroke-width:0.5;stroke-miterlimit:10;" x1="0.2" y1="-191.4" x2="61" y2="-252.2"/>
			
				<line id="XMLID_253_" style="fill:none;stroke:#000000;stroke-width:0.5;stroke-miterlimit:10;" x1="0.2" y1="-194.6" x2="57.6" y2="-252"/>
			
				<line id="XMLID_252_" style="fill:none;stroke:#000000;stroke-width:0.5;stroke-miterlimit:10;" x1="0.2" y1="-187.9" x2="64.3" y2="-252"/>
			
				<line id="XMLID_251_" style="fill:none;stroke:#000000;stroke-width:0.5;stroke-miterlimit:10;" x1="0.2" y1="-184.7" x2="67.6" y2="-252.2"/>
			
				<line id="XMLID_250_" style="fill:none;stroke:#000000;stroke-width:0.5;stroke-miterlimit:10;" x1="0.2" y1="-178.6" x2="73.7" y2="-252.2"/>
			
				<line id="XMLID_249_" style="fill:none;stroke:#000000;stroke-width:0.5;stroke-miterlimit:10;" x1="0.2" y1="-181.7" x2="70.6" y2="-252.1"/>
			
				<line id="XMLID_248_" style="fill:none;stroke:#000000;stroke-width:0.5;stroke-miterlimit:10;" x1="0.2" y1="-175.1" x2="76.9" y2="-251.8"/>
			
				<line id="XMLID_247_" style="fill:none;stroke:#000000;stroke-width:0.5;stroke-miterlimit:10;" x1="0.2" y1="-171.9" x2="80" y2="-251.8"/>
			
				<line id="XMLID_246_" style="fill:none;stroke:#000000;stroke-width:0.5;stroke-miterlimit:10;" x1="0.2" y1="-165.4" x2="86.7" y2="-252"/>
			
				<line id="XMLID_245_" style="fill:none;stroke:#000000;stroke-width:0.5;stroke-miterlimit:10;" x1="0.2" y1="-168.5" x2="83.4" y2="-251.8"/>
			
				<line id="XMLID_244_" style="fill:none;stroke:#000000;stroke-width:0.5;stroke-miterlimit:10;" x1="0.2" y1="-161.9" x2="90.1" y2="-251.8"/>
			
				<line id="XMLID_243_" style="fill:none;stroke:#000000;stroke-width:0.5;stroke-miterlimit:10;" x1="0.2" y1="-158.7" x2="93.2" y2="-251.8"/>
			
				<line id="XMLID_242_" style="fill:none;stroke:#000000;stroke-width:0.5;stroke-miterlimit:10;" x1="0.2" y1="-152.6" x2="99.7" y2="-252.2"/>
			
				<line id="XMLID_241_" style="fill:none;stroke:#000000;stroke-width:0.5;stroke-miterlimit:10;" x1="0.2" y1="-155.8" x2="96.6" y2="-252.2"/>
			
				<line id="XMLID_240_" style="fill:none;stroke:#000000;stroke-width:0.5;stroke-miterlimit:10;" x1="3.3" y1="-152.2" x2="100.2" y2="-249.1"/>
			
				<line id="XMLID_239_" style="fill:none;stroke:#000000;stroke-width:0.5;stroke-miterlimit:10;" x1="6.4" y1="-152.2" x2="100.2" y2="-245.9"/>
			
				<line id="XMLID_238_" style="fill:none;stroke:#000000;stroke-width:0.5;stroke-miterlimit:10;" x1="12.7" y1="-152" x2="100.2" y2="-239.4"/>
			
				<line id="XMLID_237_" style="fill:none;stroke:#000000;stroke-width:0.5;stroke-miterlimit:10;" x1="10.3" y1="-152.6" x2="100.2" y2="-242.6"/>
			
				<line id="XMLID_236_" style="fill:none;stroke:#000000;stroke-width:0.5;stroke-miterlimit:10;" x1="16" y1="-151.7" x2="100.1" y2="-235.8"/>
			
				<line id="XMLID_235_" style="fill:none;stroke:#000000;stroke-width:0.5;stroke-miterlimit:10;" x1="19.7" y1="-152.3" x2="100.2" y2="-232.7"/>
		</g>
	</g>
</pattern>
<rect id="XMLID_27_" style="opacity:0.21;fill:url(#Fake_Football);" width="100" height="100"/>
</svg>
