<?xml version="1.0" encoding="utf-8"?>
<!-- Generator: Adobe Illustrator 19.0.0, SVG Export Plug-In . SVG Version: 6.00 Build 0)  -->
<svg version="1.1" id="Layer_1" xmlns="http://www.w3.org/2000/svg" xmlns:xlink="http://www.w3.org/1999/xlink" x="0px" y="0px"
	 viewBox="0 0 100 100" style="enable-background:new 0 0 100 100;" xml:space="preserve">
<pattern  x="-150" y="-150" width="100.4" height="151.5" patternUnits="userSpaceOnUse" id="Fake_Football" viewBox="50.2 -202 100.4 151.5" style="overflow:visible;">
	<g id="XMLID_41_">
		<polygon id="XMLID_183_" style="fill:none;" points="50.2,-202 150.6,-202 150.6,-50.5 50.2,-50.5 		"/>
		<g id="XMLID_150_">
			
				<line id="XMLID_182_" style="fill:none;stroke:#000000;stroke-width:0.5;stroke-miterlimit:10;" x1="100.6" y1="-79.1" x2="122.1" y2="-100.6"/>
			
				<line id="XMLID_181_" style="fill:none;stroke:#000000;stroke-width:0.5;stroke-miterlimit:10;" x1="100.6" y1="-82.2" x2="119" y2="-100.6"/>
			
				<line id="XMLID_180_" style="fill:none;stroke:#000000;stroke-width:0.5;stroke-miterlimit:10;" x1="100.6" y1="-75.5" x2="125.7" y2="-100.6"/>
			
				<line id="XMLID_179_" style="fill:none;stroke:#000000;stroke-width:0.5;stroke-miterlimit:10;" x1="100.6" y1="-72.4" x2="128.9" y2="-100.7"/>
			
				<line id="XMLID_178_" style="fill:none;stroke:#000000;stroke-width:0.5;stroke-miterlimit:10;" x1="100.6" y1="-65.9" x2="135.5" y2="-100.8"/>
			
				<line id="XMLID_177_" style="fill:none;stroke:#000000;stroke-width:0.5;stroke-miterlimit:10;" x1="100.6" y1="-69" x2="132.2" y2="-100.6"/>
			
				<line id="XMLID_176_" style="fill:none;stroke:#000000;stroke-width:0.5;stroke-miterlimit:10;" x1="100.6" y1="-62.3" x2="138.9" y2="-100.6"/>
			
				<line id="XMLID_175_" style="fill:none;stroke:#000000;stroke-width:0.5;stroke-miterlimit:10;" x1="100.6" y1="-59.2" x2="142" y2="-100.6"/>
			
				<line id="XMLID_174_" style="fill:none;stroke:#000000;stroke-width:0.5;stroke-miterlimit:10;" x1="100.6" y1="-53.1" x2="147.9" y2="-100.5"/>
			
				<line id="XMLID_173_" style="fill:none;stroke:#000000;stroke-width:0.5;stroke-miterlimit:10;" x1="100.6" y1="-56.2" x2="144.8" y2="-100.5"/>
			
				<line id="XMLID_172_" style="fill:none;stroke:#000000;stroke-width:0.5;stroke-miterlimit:10;" x1="100.6" y1="-49.5" x2="151.5" y2="-100.5"/>
			
				<line id="XMLID_171_" style="fill:none;stroke:#000000;stroke-width:0.5;stroke-miterlimit:10;" x1="100.6" y1="-46.4" x2="154.7" y2="-100.5"/>
			
				<line id="XMLID_170_" style="fill:none;stroke:#000000;stroke-width:0.5;stroke-miterlimit:10;" x1="100.6" y1="-39.9" x2="161.3" y2="-100.7"/>
			
				<line id="XMLID_169_" style="fill:none;stroke:#000000;stroke-width:0.5;stroke-miterlimit:10;" x1="100.6" y1="-43" x2="158" y2="-100.5"/>
			
				<line id="XMLID_168_" style="fill:none;stroke:#000000;stroke-width:0.5;stroke-miterlimit:10;" x1="100.6" y1="-36.3" x2="164.7" y2="-100.5"/>
			
				<line id="XMLID_167_" style="fill:none;stroke:#000000;stroke-width:0.5;stroke-miterlimit:10;" x1="100.6" y1="-33.2" x2="168" y2="-100.7"/>
			
				<line id="XMLID_166_" style="fill:none;stroke:#000000;stroke-width:0.5;stroke-miterlimit:10;" x1="100.6" y1="-27.1" x2="174.1" y2="-100.6"/>
			
				<line id="XMLID_165_" style="fill:none;stroke:#000000;stroke-width:0.5;stroke-miterlimit:10;" x1="100.6" y1="-30.2" x2="171" y2="-100.6"/>
			
				<line id="XMLID_164_" style="fill:none;stroke:#000000;stroke-width:0.5;stroke-miterlimit:10;" x1="100.6" y1="-23.5" x2="177.2" y2="-100.2"/>
			
				<line id="XMLID_163_" style="fill:none;stroke:#000000;stroke-width:0.5;stroke-miterlimit:10;" x1="100.6" y1="-20.4" x2="180.4" y2="-100.3"/>
			
				<line id="XMLID_162_" style="fill:none;stroke:#000000;stroke-width:0.5;stroke-miterlimit:10;" x1="100.6" y1="-13.9" x2="187.1" y2="-100.4"/>
			
				<line id="XMLID_161_" style="fill:none;stroke:#000000;stroke-width:0.5;stroke-miterlimit:10;" x1="100.6" y1="-17" x2="183.8" y2="-100.2"/>
			
				<line id="XMLID_160_" style="fill:none;stroke:#000000;stroke-width:0.5;stroke-miterlimit:10;" x1="100.6" y1="-10.3" x2="190.4" y2="-100.2"/>
			
				<line id="XMLID_159_" style="fill:none;stroke:#000000;stroke-width:0.5;stroke-miterlimit:10;" x1="100.6" y1="-7.2" x2="193.6" y2="-100.2"/>
			
				<line id="XMLID_158_" style="fill:none;stroke:#000000;stroke-width:0.5;stroke-miterlimit:10;" x1="100.6" y1="-1.1" x2="200.1" y2="-100.7"/>
			
				<line id="XMLID_157_" style="fill:none;stroke:#000000;stroke-width:0.5;stroke-miterlimit:10;" x1="100.6" y1="-4.2" x2="197" y2="-100.7"/>
			
				<line id="XMLID_156_" style="fill:none;stroke:#000000;stroke-width:0.5;stroke-miterlimit:10;" x1="103.7" y1="-0.7" x2="200.6" y2="-97.6"/>
			
				<line id="XMLID_155_" style="fill:none;stroke:#000000;stroke-width:0.5;stroke-miterlimit:10;" x1="106.8" y1="-0.7" x2="200.6" y2="-94.4"/>
			
				<line id="XMLID_154_" style="fill:none;stroke:#000000;stroke-width:0.5;stroke-miterlimit:10;" x1="113.1" y1="-0.5" x2="200.6" y2="-87.9"/>
			
				<line id="XMLID_153_" style="fill:none;stroke:#000000;stroke-width:0.5;stroke-miterlimit:10;" x1="110.6" y1="-1.1" x2="200.6" y2="-91.1"/>
			
				<line id="XMLID_152_" style="fill:none;stroke:#000000;stroke-width:0.5;stroke-miterlimit:10;" x1="116.4" y1="-0.2" x2="200.5" y2="-84.3"/>
			
				<line id="XMLID_151_" style="fill:none;stroke:#000000;stroke-width:0.5;stroke-miterlimit:10;" x1="120.1" y1="-0.7" x2="200.6" y2="-81.2"/>
		</g>
		<g id="XMLID_123_">
			
				<line id="XMLID_149_" style="fill:none;stroke:#000000;stroke-width:0.5;stroke-miterlimit:10;" x1="0.2" y1="-49.5" x2="51.1" y2="-100.5"/>
			
				<line id="XMLID_148_" style="fill:none;stroke:#000000;stroke-width:0.5;stroke-miterlimit:10;" x1="0.2" y1="-46.4" x2="54.3" y2="-100.5"/>
			
				<line id="XMLID_147_" style="fill:none;stroke:#000000;stroke-width:0.5;stroke-miterlimit:10;" x1="0.2" y1="-39.9" x2="61" y2="-100.7"/>
			
				<line id="XMLID_146_" style="fill:none;stroke:#000000;stroke-width:0.5;stroke-miterlimit:10;" x1="0.2" y1="-43" x2="57.6" y2="-100.5"/>
			
				<line id="XMLID_145_" style="fill:none;stroke:#000000;stroke-width:0.5;stroke-miterlimit:10;" x1="0.2" y1="-36.3" x2="64.3" y2="-100.5"/>
			
				<line id="XMLID_144_" style="fill:none;stroke:#000000;stroke-width:0.5;stroke-miterlimit:10;" x1="0.2" y1="-33.2" x2="67.6" y2="-100.7"/>
			
				<line id="XMLID_143_" style="fill:none;stroke:#000000;stroke-width:0.5;stroke-miterlimit:10;" x1="0.2" y1="-27.1" x2="73.7" y2="-100.6"/>
			
				<line id="XMLID_142_" style="fill:none;stroke:#000000;stroke-width:0.5;stroke-miterlimit:10;" x1="0.2" y1="-30.2" x2="70.6" y2="-100.6"/>
			
				<line id="XMLID_141_" style="fill:none;stroke:#000000;stroke-width:0.5;stroke-miterlimit:10;" x1="0.2" y1="-23.5" x2="76.9" y2="-100.2"/>
			
				<line id="XMLID_136_" style="fill:none;stroke:#000000;stroke-width:0.5;stroke-miterlimit:10;" x1="0.2" y1="-20.4" x2="80" y2="-100.3"/>
			
				<line id="XMLID_135_" style="fill:none;stroke:#000000;stroke-width:0.5;stroke-miterlimit:10;" x1="0.2" y1="-13.9" x2="86.7" y2="-100.4"/>
			
				<line id="XMLID_134_" style="fill:none;stroke:#000000;stroke-width:0.5;stroke-miterlimit:10;" x1="0.2" y1="-17" x2="83.4" y2="-100.2"/>
			
				<line id="XMLID_133_" style="fill:none;stroke:#000000;stroke-width:0.5;stroke-miterlimit:10;" x1="0.2" y1="-10.3" x2="90.1" y2="-100.2"/>
			
				<line id="XMLID_132_" style="fill:none;stroke:#000000;stroke-width:0.5;stroke-miterlimit:10;" x1="0.2" y1="-7.2" x2="93.2" y2="-100.2"/>
			
				<line id="XMLID_131_" style="fill:none;stroke:#000000;stroke-width:0.5;stroke-miterlimit:10;" x1="0.2" y1="-1.1" x2="99.7" y2="-100.7"/>
			
				<line id="XMLID_130_" style="fill:none;stroke:#000000;stroke-width:0.5;stroke-miterlimit:10;" x1="0.2" y1="-4.2" x2="96.6" y2="-100.7"/>
			
				<line id="XMLID_129_" style="fill:none;stroke:#000000;stroke-width:0.5;stroke-miterlimit:10;" x1="3.3" y1="-0.7" x2="100.2" y2="-97.6"/>
			
				<line id="XMLID_128_" style="fill:none;stroke:#000000;stroke-width:0.5;stroke-miterlimit:10;" x1="6.4" y1="-0.7" x2="100.2" y2="-94.4"/>
			
				<line id="XMLID_127_" style="fill:none;stroke:#000000;stroke-width:0.5;stroke-miterlimit:10;" x1="12.7" y1="-0.5" x2="100.2" y2="-87.9"/>
			
				<line id="XMLID_126_" style="fill:none;stroke:#000000;stroke-width:0.5;stroke-miterlimit:10;" x1="10.3" y1="-1.1" x2="100.2" y2="-91.1"/>
			
				<line id="XMLID_125_" style="fill:none;stroke:#000000;stroke-width:0.5;stroke-miterlimit:10;" x1="16" y1="-0.2" x2="100.1" y2="-84.3"/>
			
				<line id="XMLID_124_" style="fill:none;stroke:#000000;stroke-width:0.5;stroke-miterlimit:10;" x1="19.7" y1="-0.7" x2="100.2" y2="-81.2"/>
		</g>
		<g id="XMLID_89_">
			
				<line id="XMLID_122_" style="fill:none;stroke:#000000;stroke-width:0.5;stroke-miterlimit:10;" x1="50.4" y1="-154.8" x2="71.9" y2="-176.4"/>
			
				<line id="XMLID_121_" style="fill:none;stroke:#000000;stroke-width:0.5;stroke-miterlimit:10;" x1="50.4" y1="-158" x2="68.8" y2="-176.4"/>
			
				<line id="XMLID_120_" style="fill:none;stroke:#000000;stroke-width:0.5;stroke-miterlimit:10;" x1="50.4" y1="-151.3" x2="75.5" y2="-176.4"/>
			
				<line id="XMLID_119_" style="fill:none;stroke:#000000;stroke-width:0.5;stroke-miterlimit:10;" x1="50.4" y1="-148.1" x2="78.7" y2="-176.4"/>
			
				<line id="XMLID_118_" style="fill:none;stroke:#000000;stroke-width:0.5;stroke-miterlimit:10;" x1="50.4" y1="-141.6" x2="85.3" y2="-176.6"/>
			
				<line id="XMLID_117_" style="fill:none;stroke:#000000;stroke-width:0.5;stroke-miterlimit:10;" x1="50.4" y1="-144.8" x2="82" y2="-176.4"/>
			
				<line id="XMLID_116_" style="fill:none;stroke:#000000;stroke-width:0.5;stroke-miterlimit:10;" x1="50.4" y1="-138.1" x2="88.7" y2="-176.4"/>
			
				<line id="XMLID_115_" style="fill:none;stroke:#000000;stroke-width:0.5;stroke-miterlimit:10;" x1="50.4" y1="-134.9" x2="91.8" y2="-176.4"/>
			
				<line id="XMLID_114_" style="fill:none;stroke:#000000;stroke-width:0.5;stroke-miterlimit:10;" x1="50.4" y1="-128.9" x2="97.8" y2="-176.2"/>
			
				<line id="XMLID_113_" style="fill:none;stroke:#000000;stroke-width:0.5;stroke-miterlimit:10;" x1="50.4" y1="-132" x2="94.6" y2="-176.2"/>
			
				<line id="XMLID_112_" style="fill:none;stroke:#000000;stroke-width:0.5;stroke-miterlimit:10;" x1="50.4" y1="-125.3" x2="101.3" y2="-176.2"/>
			
				<line id="XMLID_110_" style="fill:none;stroke:#000000;stroke-width:0.5;stroke-miterlimit:10;" x1="50.4" y1="-122.2" x2="104.5" y2="-176.3"/>
			
				<line id="XMLID_109_" style="fill:none;stroke:#000000;stroke-width:0.5;stroke-miterlimit:10;" x1="50.4" y1="-115.7" x2="111.2" y2="-176.4"/>
			
				<line id="XMLID_108_" style="fill:none;stroke:#000000;stroke-width:0.5;stroke-miterlimit:10;" x1="50.4" y1="-118.8" x2="107.8" y2="-176.2"/>
			
				<line id="XMLID_107_" style="fill:none;stroke:#000000;stroke-width:0.5;stroke-miterlimit:10;" x1="50.4" y1="-112.1" x2="114.5" y2="-176.2"/>
			
				<line id="XMLID_106_" style="fill:none;stroke:#000000;stroke-width:0.5;stroke-miterlimit:10;" x1="50.4" y1="-109" x2="117.8" y2="-176.4"/>
			
				<line id="XMLID_105_" style="fill:none;stroke:#000000;stroke-width:0.5;stroke-miterlimit:10;" x1="50.4" y1="-102.9" x2="123.9" y2="-176.4"/>
			
				<line id="XMLID_104_" style="fill:none;stroke:#000000;stroke-width:0.5;stroke-miterlimit:10;" x1="50.4" y1="-106" x2="120.8" y2="-176.4"/>
			
				<line id="XMLID_103_" style="fill:none;stroke:#000000;stroke-width:0.5;stroke-miterlimit:10;" x1="50.4" y1="-99.3" x2="127.1" y2="-176"/>
			
				<line id="XMLID_102_" style="fill:none;stroke:#000000;stroke-width:0.5;stroke-miterlimit:10;" x1="50.4" y1="-96.2" x2="130.2" y2="-176"/>
			
				<line id="XMLID_101_" style="fill:none;stroke:#000000;stroke-width:0.5;stroke-miterlimit:10;" x1="50.4" y1="-89.7" x2="136.9" y2="-176.2"/>
			
				<line id="XMLID_100_" style="fill:none;stroke:#000000;stroke-width:0.5;stroke-miterlimit:10;" x1="50.4" y1="-92.8" x2="133.6" y2="-176"/>
			
				<line id="XMLID_99_" style="fill:none;stroke:#000000;stroke-width:0.5;stroke-miterlimit:10;" x1="50.4" y1="-86.1" x2="140.3" y2="-176"/>
			
				<line id="XMLID_98_" style="fill:none;stroke:#000000;stroke-width:0.5;stroke-miterlimit:10;" x1="50.4" y1="-83" x2="143.4" y2="-176"/>
			
				<line id="XMLID_97_" style="fill:none;stroke:#000000;stroke-width:0.5;stroke-miterlimit:10;" x1="50.4" y1="-76.9" x2="149.9" y2="-176.4"/>
			
				<line id="XMLID_96_" style="fill:none;stroke:#000000;stroke-width:0.5;stroke-miterlimit:10;" x1="50.4" y1="-80" x2="146.8" y2="-176.5"/>
			
				<line id="XMLID_95_" style="fill:none;stroke:#000000;stroke-width:0.5;stroke-miterlimit:10;" x1="53.5" y1="-76.5" x2="150.4" y2="-173.3"/>
			
				<line id="XMLID_94_" style="fill:none;stroke:#000000;stroke-width:0.5;stroke-miterlimit:10;" x1="56.6" y1="-76.4" x2="150.4" y2="-170.2"/>
			
				<line id="XMLID_93_" style="fill:none;stroke:#000000;stroke-width:0.5;stroke-miterlimit:10;" x1="62.9" y1="-76.2" x2="150.4" y2="-163.7"/>
			
				<line id="XMLID_92_" style="fill:none;stroke:#000000;stroke-width:0.5;stroke-miterlimit:10;" x1="60.5" y1="-76.9" x2="150.4" y2="-166.8"/>
			
				<line id="XMLID_91_" style="fill:none;stroke:#000000;stroke-width:0.5;stroke-miterlimit:10;" x1="66.2" y1="-75.9" x2="150.3" y2="-160.1"/>
			
				<line id="XMLID_90_" style="fill:none;stroke:#000000;stroke-width:0.5;stroke-miterlimit:10;" x1="69.9" y1="-76.5" x2="150.4" y2="-157"/>
		</g>
		<g id="XMLID_65_">
			
				<line id="XMLID_88_" style="fill:none;stroke:#000000;stroke-width:0.5;stroke-miterlimit:10;" x1="100.6" y1="-201.1" x2="151.5" y2="-252"/>
			
				<line id="XMLID_87_" style="fill:none;stroke:#000000;stroke-width:0.5;stroke-miterlimit:10;" x1="100.6" y1="-197.9" x2="154.7" y2="-252"/>
			
				<line id="XMLID_86_" style="fill:none;stroke:#000000;stroke-width:0.5;stroke-miterlimit:10;" x1="100.6" y1="-191.4" x2="161.3" y2="-252.2"/>
			
				<line id="XMLID_84_" style="fill:none;stroke:#000000;stroke-width:0.5;stroke-miterlimit:10;" x1="100.6" y1="-194.6" x2="158" y2="-252"/>
			
				<line id="XMLID_83_" style="fill:none;stroke:#000000;stroke-width:0.5;stroke-miterlimit:10;" x1="100.6" y1="-187.9" x2="164.7" y2="-252"/>
			
				<line id="XMLID_82_" style="fill:none;stroke:#000000;stroke-width:0.5;stroke-miterlimit:10;" x1="100.6" y1="-184.7" x2="168" y2="-252.2"/>
			
				<line id="XMLID_81_" style="fill:none;stroke:#000000;stroke-width:0.5;stroke-miterlimit:10;" x1="100.6" y1="-178.6" x2="174.1" y2="-252.2"/>
			
				<line id="XMLID_80_" style="fill:none;stroke:#000000;stroke-width:0.5;stroke-miterlimit:10;" x1="100.6" y1="-181.7" x2="171" y2="-252.1"/>
			
				<line id="XMLID_79_" style="fill:none;stroke:#000000;stroke-width:0.5;stroke-miterlimit:10;" x1="100.6" y1="-175.1" x2="177.2" y2="-251.8"/>
			
				<line id="XMLID_78_" style="fill:none;stroke:#000000;stroke-width:0.5;stroke-miterlimit:10;" x1="100.6" y1="-171.9" x2="180.4" y2="-251.8"/>
			
				<line id="XMLID_77_" style="fill:none;stroke:#000000;stroke-width:0.5;stroke-miterlimit:10;" x1="100.6" y1="-165.4" x2="187.1" y2="-252"/>
			
				<line id="XMLID_76_" style="fill:none;stroke:#000000;stroke-width:0.5;stroke-miterlimit:10;" x1="100.6" y1="-168.5" x2="183.8" y2="-251.8"/>
			
				<line id="XMLID_75_" style="fill:none;stroke:#000000;stroke-width:0.5;stroke-miterlimit:10;" x1="100.6" y1="-161.9" x2="190.4" y2="-251.8"/>
			
				<line id="XMLID_74_" style="fill:none;stroke:#000000;stroke-width:0.5;stroke-miterlimit:10;" x1="100.6" y1="-158.7" x2="193.6" y2="-251.8"/>
			
				<line id="XMLID_73_" style="fill:none;stroke:#000000;stroke-width:0.5;stroke-miterlimit:10;" x1="100.6" y1="-152.6" x2="200.1" y2="-252.2"/>
			
				<line id="XMLID_72_" style="fill:none;stroke:#000000;stroke-width:0.5;stroke-miterlimit:10;" x1="100.6" y1="-155.8" x2="197" y2="-252.2"/>
			
				<line id="XMLID_71_" style="fill:none;stroke:#000000;stroke-width:0.5;stroke-miterlimit:10;" x1="103.7" y1="-152.2" x2="200.6" y2="-249.1"/>
			
				<line id="XMLID_70_" style="fill:none;stroke:#000000;stroke-width:0.5;stroke-miterlimit:10;" x1="106.8" y1="-152.2" x2="200.6" y2="-245.9"/>
			
				<line id="XMLID_69_" style="fill:none;stroke:#000000;stroke-width:0.5;stroke-miterlimit:10;" x1="113.1" y1="-152" x2="200.6" y2="-239.4"/>
			
				<line id="XMLID_68_" style="fill:none;stroke:#000000;stroke-width:0.5;stroke-miterlimit:10;" x1="110.6" y1="-152.6" x2="200.6" y2="-242.6"/>
			
				<line id="XMLID_67_" style="fill:none;stroke:#000000;stroke-width:0.5;stroke-miterlimit:10;" x1="116.4" y1="-151.7" x2="200.5" y2="-235.8"/>
			
				<line id="XMLID_66_" style="fill:none;stroke:#000000;stroke-width:0.5;stroke-miterlimit:10;" x1="120.1" y1="-152.3" x2="200.6" y2="-232.7"/>
		</g>
		<g id="XMLID_42_">
			
				<line id="XMLID_64_" style="fill:none;stroke:#000000;stroke-width:0.5;stroke-miterlimit:10;" x1="0.2" y1="-201.1" x2="51.1" y2="-252"/>
			
				<line id="XMLID_63_" style="fill:none;stroke:#000000;stroke-width:0.5;stroke-miterlimit:10;" x1="0.2" y1="-197.9" x2="54.3" y2="-252"/>
			
				<line id="XMLID_62_" style="fill:none;stroke:#000000;stroke-width:0.5;stroke-miterlimit:10;" x1="0.2" y1="-191.4" x2="61" y2="-252.2"/>
			
				<line id="XMLID_61_" style="fill:none;stroke:#000000;stroke-width:0.5;stroke-miterlimit:10;" x1="0.2" y1="-194.6" x2="57.6" y2="-252"/>
			
				<line id="XMLID_60_" style="fill:none;stroke:#000000;stroke-width:0.5;stroke-miterlimit:10;" x1="0.2" y1="-187.9" x2="64.3" y2="-252"/>
			
				<line id="XMLID_59_" style="fill:none;stroke:#000000;stroke-width:0.5;stroke-miterlimit:10;" x1="0.2" y1="-184.7" x2="67.6" y2="-252.2"/>
			
				<line id="XMLID_58_" style="fill:none;stroke:#000000;stroke-width:0.5;stroke-miterlimit:10;" x1="0.2" y1="-178.6" x2="73.7" y2="-252.2"/>
			
				<line id="XMLID_57_" style="fill:none;stroke:#000000;stroke-width:0.5;stroke-miterlimit:10;" x1="0.2" y1="-181.7" x2="70.6" y2="-252.1"/>
			
				<line id="XMLID_56_" style="fill:none;stroke:#000000;stroke-width:0.5;stroke-miterlimit:10;" x1="0.2" y1="-175.1" x2="76.9" y2="-251.8"/>
			
				<line id="XMLID_55_" style="fill:none;stroke:#000000;stroke-width:0.5;stroke-miterlimit:10;" x1="0.2" y1="-171.9" x2="80" y2="-251.8"/>
			
				<line id="XMLID_54_" style="fill:none;stroke:#000000;stroke-width:0.5;stroke-miterlimit:10;" x1="0.2" y1="-165.4" x2="86.7" y2="-252"/>
			
				<line id="XMLID_53_" style="fill:none;stroke:#000000;stroke-width:0.5;stroke-miterlimit:10;" x1="0.2" y1="-168.5" x2="83.4" y2="-251.8"/>
			
				<line id="XMLID_52_" style="fill:none;stroke:#000000;stroke-width:0.5;stroke-miterlimit:10;" x1="0.2" y1="-161.9" x2="90.1" y2="-251.8"/>
			
				<line id="XMLID_51_" style="fill:none;stroke:#000000;stroke-width:0.5;stroke-miterlimit:10;" x1="0.2" y1="-158.7" x2="93.2" y2="-251.8"/>
			
				<line id="XMLID_50_" style="fill:none;stroke:#000000;stroke-width:0.5;stroke-miterlimit:10;" x1="0.2" y1="-152.6" x2="99.7" y2="-252.2"/>
			
				<line id="XMLID_49_" style="fill:none;stroke:#000000;stroke-width:0.5;stroke-miterlimit:10;" x1="0.2" y1="-155.8" x2="96.6" y2="-252.2"/>
			
				<line id="XMLID_48_" style="fill:none;stroke:#000000;stroke-width:0.5;stroke-miterlimit:10;" x1="3.3" y1="-152.2" x2="100.2" y2="-249.1"/>
			
				<line id="XMLID_47_" style="fill:none;stroke:#000000;stroke-width:0.5;stroke-miterlimit:10;" x1="6.4" y1="-152.2" x2="100.2" y2="-245.9"/>
			
				<line id="XMLID_46_" style="fill:none;stroke:#000000;stroke-width:0.5;stroke-miterlimit:10;" x1="12.7" y1="-152" x2="100.2" y2="-239.4"/>
			
				<line id="XMLID_45_" style="fill:none;stroke:#000000;stroke-width:0.5;stroke-miterlimit:10;" x1="10.3" y1="-152.6" x2="100.2" y2="-242.6"/>
			
				<line id="XMLID_44_" style="fill:none;stroke:#000000;stroke-width:0.5;stroke-miterlimit:10;" x1="16" y1="-151.7" x2="100.1" y2="-235.8"/>
			
				<line id="XMLID_43_" style="fill:none;stroke:#000000;stroke-width:0.5;stroke-miterlimit:10;" x1="19.7" y1="-152.3" x2="100.2" y2="-232.7"/>
		</g>
	</g>
</pattern>
<rect id="XMLID_27_" style="opacity:0.12;fill:url(#Fake_Football);" width="100" height="100"/>
</svg>
